<svg xmlns="http://www.w3.org/2000/svg" width="800" height="700"><rect width="20" height="20" x="640" y="190" rx="2" ry="2" style="fill:#66a0ff;fill-opacity:1;stroke:none;stroke-linecap:round;stroke-linejoin:round;stroke-opacity:1"/><rect width="20" height="20" x="640" y="90" rx="2" ry="2" style="fill:#66a0ff;fill-opacity:1;stroke:none;stroke-linecap:round;stroke-linejoin:round;stroke-opacity:1"/><rect width="20" height="20" x="690" y="40" rx="2" ry="2" style="fill:#66a0ff;fill-opacity:1;stroke:none;stroke-linecap:round;stroke-linejoin:round;stroke-opacity:1"/><rect width="20" height="20" x="140" y="90" rx="2" ry="2" style="fill:#66a0ff;fill-opacity:1;stroke:none;stroke-linecap:round;stroke-linejoin:round;stroke-opacity:1"/><rect width="420" height="20" x="190" y="140" rx="2" ry="2" style="fill:#66a0ff;fill-opacity:1;stroke:none;stroke-width:.999999;stroke-linecap:round;stroke-linejoin:round;stroke-opacity:1"/><rect width="20" height="20" x="90" y="40" rx="2" ry="2" style="fill:#66a0ff;fill-opacity:1;stroke:none;stroke-linecap:round;stroke-linejoin:round;stroke-opacity:1"/><rect width="80" height="80" x="610" y="110" rx="10" ry="10" style="fill:#cdcdcd;fill-opacity:1;stroke:none;stroke-linecap:round;stroke-linejoin:round;stroke-opacity:1"/><rect width="80" height="80" x="610" y="10" rx="10" ry="10" style="fill:#cdcdcd;fill-opacity:1;stroke:none;stroke-linecap:round;stroke-linejoin:round;stroke-opacity:1"/><rect width="80" height="80" x="710" y="10" rx="10" ry="10" style="fill:#cdcdcd;fill-opacity:1;stroke:none;stroke-linecap:round;stroke-linejoin:round;stroke-opacity:1"/><rect width="80" height="80" x="10" y="10" rx="10" ry="10" style="fill:#cdcdcd;fill-opacity:1;stroke:none;stroke-linecap:round;stroke-linejoin:round;stroke-opacity:1"/><rect width="80" height="80" x="110" y="10" rx="10" ry="10" style="fill:#cdcdcd;fill-opacity:1;stroke:none;stroke-linecap:round;stroke-linejoin:round;stroke-opacity:1"/><rect width="80" height="80" x="110" y="110" rx="10" ry="10" style="fill:#cdcdcd;fill-opacity:1;stroke:none;stroke-linecap:round;stroke-linejoin:round;stroke-opacity:1"/><rect width="80" height="80" x="610" y="310" rx="10" ry="10" style="fill:#cdcdcd;fill-opacity:1;stroke:none;stroke-linecap:round;stroke-linejoin:round;stroke-opacity:1"/><rect width="80" height="80" x="110" y="410" rx="10" ry="10" style="fill:#cdcdcd;fill-opacity:1;stroke:none;stroke-linecap:round;stroke-linejoin:round;stroke-opacity:1"/><rect width="80" height="80" x="310" y="310" rx="10" ry="10" style="fill:#cdcdcd;fill-opacity:1;stroke:none;stroke-linecap:round;stroke-linejoin:round;stroke-opacity:1"/><rect width="80" height="80" x="310" y="210" rx="10" ry="10" style="fill:#cdcdcd;fill-opacity:1;stroke:none;stroke-linecap:round;stroke-linejoin:round;stroke-opacity:1"/><rect width="80" height="80" x="410" y="210" rx="10" ry="10" style="fill:#cdcdcd;fill-opacity:1;stroke:none;stroke-linecap:round;stroke-linejoin:round;stroke-opacity:1"/><rect width="80" height="80" x="410" y="410" rx="10" ry="10" style="fill:#cdcdcd;fill-opacity:1;stroke:none;stroke-linecap:round;stroke-linejoin:round;stroke-opacity:1"/><rect width="80" height="80" x="510" y="410" rx="10" ry="10" style="fill:#cdcdcd;fill-opacity:1;stroke:none;stroke-linecap:round;stroke-linejoin:round;stroke-opacity:1"/><rect width="80" height="80" x="510" y="310" rx="10" ry="10" style="fill:#cdcdcd;fill-opacity:1;stroke:none;stroke-linecap:round;stroke-linejoin:round;stroke-opacity:1"/><rect width="80" height="80" x="210" y="310" rx="10" ry="10" style="fill:#6d6d6d;fill-opacity:1;stroke:none;stroke-linecap:round;stroke-linejoin:round;stroke-opacity:1"/><rect width="80" height="80" x="110" y="510" rx="10" ry="10" style="fill:#cdcdcd;fill-opacity:1;stroke:none;stroke-linecap:round;stroke-linejoin:round;stroke-opacity:1"/><rect width="80" height="80" x="10" y="510" rx="10" ry="10" style="fill:#cdcdcd;fill-opacity:1;stroke:none;stroke-linecap:round;stroke-linejoin:round;stroke-opacity:1"/><rect width="80" height="80" x="10" y="610" rx="10" ry="10" style="fill:#cdcdcd;fill-opacity:1;stroke:none;stroke-linecap:round;stroke-linejoin:round;stroke-opacity:1"/><rect width="80" height="80" x="210" y="510" rx="10" ry="10" style="fill:#cdcdcd;fill-opacity:1;stroke:none;stroke-linecap:round;stroke-linejoin:round;stroke-opacity:1"/><rect width="20" height="20" x="640" y="290" rx="2" ry="2" style="fill:#66a0ff;fill-opacity:1;stroke:none;stroke-linecap:round;stroke-linejoin:round;stroke-opacity:1"/><rect width="20" height="20" x="140" y="490" rx="2" ry="2" style="fill:#66a0ff;fill-opacity:1;stroke:none;stroke-linecap:round;stroke-linejoin:round;stroke-opacity:1"/><rect width="20" height="20" x="90" y="540" rx="2" ry="2" style="fill:#66a0ff;fill-opacity:1;stroke:none;stroke-linecap:round;stroke-linejoin:round;stroke-opacity:1"/><rect width="20" height="20" x="40" y="590" rx="2" ry="2" style="fill:#66a0ff;fill-opacity:1;stroke:none;stroke-linecap:round;stroke-linejoin:round;stroke-opacity:1"/><rect width="20" height="20" x="190" y="540" rx="2" ry="2" style="fill:#66a0ff;fill-opacity:1;stroke:none;stroke-linecap:round;stroke-linejoin:round;stroke-opacity:1"/><rect width="20" height="20" x="490" y="440" rx="2" ry="2" style="fill:#66a0ff;fill-opacity:1;stroke:none;stroke-linecap:round;stroke-linejoin:round;stroke-opacity:1"/><rect width="20" height="20" x="540" y="390" rx="2" ry="2" style="fill:#66a0ff;fill-opacity:1;stroke:none;stroke-linecap:round;stroke-linejoin:round;stroke-opacity:1"/><rect width="20" height="20" x="390" y="240" rx="2" ry="2" style="fill:#66a0ff;fill-opacity:1;stroke:none;stroke-linecap:round;stroke-linejoin:round;stroke-opacity:1"/><rect width="20" height="20" x="340" y="290" rx="2" ry="2" style="fill:#66a0ff;fill-opacity:1;stroke:none;stroke-linecap:round;stroke-linejoin:round;stroke-opacity:1"/><rect width="20" height="20" x="290" y="340" rx="2" ry="2" style="fill:#66a0ff;fill-opacity:1;stroke:none;stroke-linecap:round;stroke-linejoin:round;stroke-opacity:1"/><rect width="20" height="220" x="140" y="190" rx="2" ry="2" style="fill:#66a0ff;fill-opacity:1;stroke:none;stroke-width:.999999;stroke-linecap:round;stroke-linejoin:round;stroke-opacity:1"/><rect width="20" height="120" x="440" y="290" rx="2" ry="2" style="fill:#66a0ff;fill-opacity:1;stroke:none;stroke-width:.999999;stroke-linecap:round;stroke-linejoin:round;stroke-opacity:1"/><rect width="220" height="20" x="190" y="440" rx="2" ry="2" style="fill:#66a0ff;fill-opacity:1;stroke:none;stroke-width:.999999;stroke-linecap:round;stroke-linejoin:round;stroke-opacity:1"/><rect width="80" height="80" x="610" y="210" rx="10" ry="10" style="fill:#cdcdcd;fill-opacity:1;stroke:none;stroke-linecap:round;stroke-linejoin:round;stroke-opacity:1"/><text xml:space="preserve" x="648" y="169.479" style="font-size:42.6667px;font-family:Arial;-inkscape-font-specification:Arial;text-align:center;writing-mode:lr-tb;direction:ltr;text-anchor:middle;fill:#66a0ff;fill-opacity:1;stroke:none;stroke-linecap:round;stroke-linejoin:round;stroke-opacity:1"><tspan x="648" y="169.479">S</tspan></text><text xml:space="preserve" x="629.901" y="257.766" style="font-size:10.6667px;font-family:Arial;-inkscape-font-specification:Arial;text-align:start;writing-mode:lr-tb;direction:ltr;text-anchor:start;fill:#000;fill-opacity:1;stroke:none;stroke-linecap:round;stroke-linejoin:round;stroke-opacity:1"><tspan x="629.901" y="257.766">fuel cell</tspan></text><text xml:space="preserve" x="619.583" y="67.755" style="font-size:10.6667px;font-family:Arial;-inkscape-font-specification:Arial;text-align:start;writing-mode:lr-tb;direction:ltr;text-anchor:start;fill:#000;fill-opacity:1;stroke:none;stroke-linecap:round;stroke-linejoin:round;stroke-opacity:1"><tspan x="619.583" y="67.755">candy cane</tspan></text><text xml:space="preserve" x="131.031" y="157.464" style="font-size:10.6667px;font-family:Arial;-inkscape-font-specification:Arial;text-align:start;writing-mode:lr-tb;direction:ltr;text-anchor:start;fill:#000;fill-opacity:1;stroke:none;stroke-linecap:round;stroke-linejoin:round;stroke-opacity:1"><tspan x="131.031" y="157.464">mutex</tspan></text><text xml:space="preserve" x="437.911" y="469.875" style="font-size:10.6667px;font-family:Arial;-inkscape-font-specification:Arial;text-align:start;writing-mode:lr-tb;direction:ltr;text-anchor:start;fill:#000;fill-opacity:1;stroke:none;stroke-linecap:round;stroke-linejoin:round;stroke-opacity:1"><tspan x="437.911" y="469.875">cake</tspan></text><text xml:space="preserve" x="141.167" y="559.875" style="font-size:10.6667px;font-family:Arial;-inkscape-font-specification:Arial;text-align:start;writing-mode:lr-tb;direction:ltr;text-anchor:start;fill:#000;fill-opacity:1;stroke:none;stroke-linecap:round;stroke-linejoin:round;stroke-opacity:1"><tspan x="141.167" y="559.875">coin</tspan></text><text xml:space="preserve" x="7.432" y="557.755" style="font-size:10.6667px;font-family:Arial;-inkscape-font-specification:Arial;text-align:start;writing-mode:lr-tb;direction:ltr;text-anchor:start;fill:#000;fill-opacity:1;stroke:none;stroke-linecap:round;stroke-linejoin:round;stroke-opacity:1"><tspan x="7.432" y="557.755">dehydrated water</tspan></text><text xml:space="preserve" x="320" y="260" style="font-size:10.6667px;font-family:Arial;-inkscape-font-specification:Arial;text-align:start;writing-mode:lr-tb;direction:ltr;text-anchor:start;fill:red;fill-opacity:1;stroke:none;stroke-linecap:round;stroke-linejoin:round;stroke-opacity:1"><tspan x="320" y="260">molten lava</tspan></text><text xml:space="preserve" x="512.484" y="477.635" style="font-size:10.6667px;font-family:Arial;-inkscape-font-specification:Arial;text-align:start;writing-mode:lr-tb;direction:ltr;text-anchor:start;fill:red;fill-opacity:1;stroke:none;stroke-linecap:round;stroke-linejoin:round;stroke-opacity:1"><tspan x="512.484" y="477.635">electromagnet</tspan></text><text xml:space="preserve" x="515.614" y="367.88" style="font-size:10.6667px;font-family:Arial;-inkscape-font-specification:Arial;text-align:start;writing-mode:lr-tb;direction:ltr;text-anchor:start;fill:red;fill-opacity:1;stroke:none;stroke-linecap:round;stroke-linejoin:round;stroke-opacity:1"><tspan x="515.614" y="367.88">escape pod</tspan></text><text xml:space="preserve" x="432.453" y="257.635" style="font-size:10.6667px;font-family:Arial;-inkscape-font-specification:Arial;text-align:start;writing-mode:lr-tb;direction:ltr;text-anchor:start;fill:red;fill-opacity:1;stroke:none;stroke-linecap:round;stroke-linejoin:round;stroke-opacity:1"><tspan x="432.453" y="257.635">photons</tspan></text><text xml:space="preserve" x="629.297" y="359.875" style="font-size:10.6667px;font-family:Arial;-inkscape-font-specification:Arial;text-align:start;writing-mode:lr-tb;direction:ltr;text-anchor:start;fill:#000;fill-opacity:1;stroke:none;stroke-linecap:round;stroke-linejoin:round;stroke-opacity:1"><tspan x="629.297" y="359.875">manifold</tspan></text><text xml:space="preserve" x="14.052" y="657.635" style="font-size:10.6667px;font-family:Arial;-inkscape-font-specification:Arial;text-align:start;writing-mode:lr-tb;direction:ltr;text-anchor:start;fill:#000;fill-opacity:1;stroke:none;stroke-linecap:round;stroke-linejoin:round;stroke-opacity:1"><tspan x="14.052" y="657.635">prime number</tspan></text><text xml:space="preserve" x="220" y="560" style="font-size:10.6667px;font-family:Arial;-inkscape-font-specification:Arial;text-align:start;writing-mode:lr-tb;direction:ltr;text-anchor:start;fill:red;fill-opacity:1;stroke:none;stroke-linecap:round;stroke-linejoin:round;stroke-opacity:1"><tspan x="220" y="560">infinite loop</tspan></text></svg>